<?xml version="1.0" encoding="utf-8"?>
<!-- Generator: Adobe Illustrator 16.0.0, SVG Export Plug-In . SVG Version: 6.00 Build 0)  -->
<!DOCTYPE svg PUBLIC "-//W3C//DTD SVG 1.1//EN" "http://www.w3.org/Graphics/SVG/1.1/DTD/svg11.dtd">
<svg version="1.1" id="Layer_1" xmlns="http://www.w3.org/2000/svg" xmlns:xlink="http://www.w3.org/1999/xlink" x="0px" y="0px"
	 width="300.083px" height="149.112px" viewBox="0 0 300.083 149.112" enable-background="new 0 0 300.083 149.112"
	 xml:space="preserve">
<path fill="#2a2b2f" d="M223.045,0.005c-20.441,0.226-38.551,8.229-51.679,21.235l-0.014-0.014l-25.871,26.019l-45.211,45.472
	c0,0-1.968,1.978-2.957,2.975c-0.01,0.009-0.019,0.02-0.029,0.028c-5.433,5.462-13.061,8.809-21.757,8.906
	c-17.392,0.194-30.75-12.733-30.93-29.931c-0.179-17.054,12.891-30.442,29.904-30.63c16.551-0.184,29.577,11.358,31.196,27.06
	l34.452-34.855C126.99,14.032,102.421-0.316,73.428,0.005C31.658,0.469-0.434,33.339,0.004,75.213
	c0.443,42.226,33.243,74.372,75.943,73.894c21.021-0.234,39.487-8.618,52.784-21.659c0.143-0.14,0.291-0.273,0.432-0.414
	l0.465-0.468l24.847-24.99c10.669,28.378,37.088,47.826,70.296,47.454c42.743-0.478,75.768-33.25,75.306-75.331
	C299.613,31.497,266.195-0.473,223.045,0.005 M225.145,104.627c-17.391,0.194-30.75-12.733-30.93-29.931
	c-0.179-17.054,12.892-30.442,29.904-30.63c17.574-0.195,31.185,12.825,31.373,30.014
	C255.68,91.219,242.553,104.432,225.145,104.627"/>
</svg>
