{
	"asset":{
		"version":"2.0",
		"generator":"Created using the official Cinema 4D glTF Exporter 1.000x284978"
	},
	"scenes":[{
		"nodes":[0,
		1,
		2,
		3,
		4,
		5,
		6,
		7]
	}],
	"nodes":[{
		"name":"Base",
		"rotation":[0.0,
		0.0,
		0.0,
		-1.0],
		"translation":[3.8410348892211916,
		-6.873000144958496,
		12.228188514709473],
		"scale":[1.0,
		1.0,
		1.0],
		"mesh":0
	},
	{
		"name":"P_1",
		"rotation":[0.0,
		0.0,
		0.0,
		-1.0],
		"translation":[3.2420151233673097,
		85.51302337646485,
		17.438432693481447],
		"scale":[1.0,
		1.0,
		1.0],
		"mesh":1
	},
	{
		"name":"P_2",
		"rotation":[0.0,
		0.0,
		0.0,
		-1.0],
		"translation":[3.2420151233673097,
		75.19490051269531,
		10.981037139892579],
		"scale":[1.0,
		1.0,
		1.0],
		"mesh":2
	},
	{
		"name":"P_3",
		"rotation":[0.0,
		0.0,
		0.0,
		-1.0],
		"translation":[3.2420151233673097,
		63.56721115112305,
		5.898195743560791],
		"scale":[1.0,
		1.0,
		1.0],
		"mesh":3
	},
	{
		"name":"P_4",
		"rotation":[0.0,
		0.0,
		0.0,
		-1.0],
		"translation":[3.2420151233673097,
		52.83049011230469,
		1.1327415704727173],
		"scale":[1.0,
		1.0,
		1.0],
		"mesh":4
	},
	{
		"name":"P_5",
		"rotation":[0.0,
		0.0,
		0.0,
		-1.0],
		"translation":[3.2420151233673097,
		40.62288284301758,
		-4.029318332672119],
		"scale":[1.0,
		1.0,
		1.0],
		"mesh":5
	},
	{
		"name":"P_6",
		"rotation":[0.0,
		0.0,
		0.0,
		-1.0],
		"translation":[3.2420151233673097,
		28.76446533203125,
		-9.276529312133789],
		"scale":[1.0,
		1.0,
		1.0],
		"mesh":6
	},
	{
		"name":"P_7",
		"rotation":[0.0,
		0.0,
		0.0,
		-1.0],
		"translation":[3.2420151233673097,
		16.08698081970215,
		-14.529690742492676],
		"scale":[1.0,
		1.0,
		1.0],
		"mesh":7
	}],
	"meshes":[{
		"name":"Base",
		"primitives":[{
			"material":0,
			"attributes":{
				"POSITION":1,
				"NORMAL":2,
				"TEXCOORD_0":3
			},
			"indices":0
		}]
	},
	{
		"name":"P_1",
		"primitives":[{
			"material":0,
			"attributes":{
				"POSITION":5,
				"NORMAL":6,
				"TEXCOORD_0":7
			},
			"indices":4
		}]
	},
	{
		"name":"P_2",
		"primitives":[{
			"material":0,
			"attributes":{
				"POSITION":9,
				"NORMAL":10,
				"TEXCOORD_0":11
			},
			"indices":8
		}]
	},
	{
		"name":"P_3",
		"primitives":[{
			"material":0,
			"attributes":{
				"POSITION":13,
				"NORMAL":14,
				"TEXCOORD_0":15
			},
			"indices":12
		}]
	},
	{
		"name":"P_4",
		"primitives":[{
			"material":0,
			"attributes":{
				"POSITION":17,
				"NORMAL":18,
				"TEXCOORD_0":19
			},
			"indices":16
		}]
	},
	{
		"name":"P_5",
		"primitives":[{
			"material":0,
			"attributes":{
				"POSITION":21,
				"NORMAL":22,
				"TEXCOORD_0":23
			},
			"indices":20
		}]
	},
	{
		"name":"P_6",
		"primitives":[{
			"material":0,
			"attributes":{
				"POSITION":25,
				"NORMAL":26,
				"TEXCOORD_0":27
			},
			"indices":24
		}]
	},
	{
		"name":"P_7",
		"primitives":[{
			"material":0,
			"attributes":{
				"POSITION":29,
				"NORMAL":30,
				"TEXCOORD_0":31
			},
			"indices":28
		}]
	}],
	"buffers":[{
		"uri":"data:application/octet-stream;base64,",
		"byteLength":10704
	},
	{
		"uri":"data:application/octet-stream;base64,",
		"byteLength":2776
	},
	{
		"uri":"data:application/octet-stream;base64,",
		"byteLength":1076
	},
	{
		"uri":"data:application/octet-stream;base64,",
		"byteLength":1076
	},
	{
		"uri":"data:application/octet-stream;base64,",
		"byteLength":1076
	},
	{
		"uri":"data:application/octet-stream;base64,",
		"byteLength":1108
	},
	{
		"uri":"data:application/octet-stream;base64,",
		"byteLength":1076
	},
	{
		"uri":"data:application/octet-stream;base64,",
		"byteLength":1076
	}],
	"accessors":[{
		"bufferView":0,
		"type":"SCALAR",
		"componentType":5123,
		"count":552,
		"byteOffset":0,
		"min":[0],
		"max":[299]
	},
	{
		"bufferView":1,
		"type":"VEC3",
		"componentType":5126,
		"count":300,
		"byteOffset":0,
		"min":[-140.8279266357422,
		-4.509004592895508,
		-105.49617767333985],
		"max":[140.8279266357422,
		7.0,
		103.74046325683594]
	},
	{
		"bufferView":1,
		"type":"VEC3",
		"componentType":5126,
		"count":300,
		"byteOffset":12,
		"min":[-0.7423626184463501,
		-1.0,
		-0.9675382971763611],
		"max":[0.7423626184463501,
		1.0,
		0.7071083188056946]
	},
	{
		"bufferView":1,
		"type":"VEC2",
		"componentType":5126,
		"count":300,
		"byteOffset":24,
		"min":[0.0,
		0.0],
		"max":[1.0,
		1.0]
	},
	{
		"bufferView":2,
		"type":"SCALAR",
		"componentType":5123,
		"count":108,
		"byteOffset":0,
		"min":[0],
		"max":[79]
	},
	{
		"bufferView":3,
		"type":"VEC3",
		"componentType":5126,
		"count":80,
		"byteOffset":0,
		"min":[-13.540836334228516,
		-85.90931701660156,
		-7.4511942863464359],
		"max":[13.540836334228516,
		85.90931701660156,
		7.4511942863464359]
	},
	{
		"bufferView":3,
		"type":"VEC3",
		"componentType":5126,
		"count":80,
		"byteOffset":12,
		"min":[-1.0,
		-1.0,
		-1.0],
		"max":[1.0,
		1.0,
		1.0]
	},
	{
		"bufferView":3,
		"type":"VEC2",
		"componentType":5126,
		"count":80,
		"byteOffset":24,
		"min":[0.0,
		0.0],
		"max":[1.0,
		1.0]
	},
	{
		"bufferView":4,
		"type":"SCALAR",
		"componentType":5123,
		"count":42,
		"byteOffset":0,
		"min":[0],
		"max":[30]
	},
	{
		"bufferView":5,
		"type":"VEC3",
		"componentType":5126,
		"count":31,
		"byteOffset":0,
		"min":[-30.324968338012697,
		-75.58937072753906,
		-16.870149612426759],
		"max":[30.324968338012697,
		75.59120178222656,
		16.870149612426759]
	},
	{
		"bufferView":5,
		"type":"VEC3",
		"componentType":5126,
		"count":31,
		"byteOffset":12,
		"min":[-1.0,
		-1.0,
		-0.6901199817657471],
		"max":[0.9134101271629334,
		0.27901652455329897,
		0.6891024708747864]
	},
	{
		"bufferView":5,
		"type":"VEC2",
		"componentType":5126,
		"count":31,
		"byteOffset":24,
		"min":[0.0,
		0.0],
		"max":[1.0,
		1.0]
	},
	{
		"bufferView":6,
		"type":"SCALAR",
		"componentType":5123,
		"count":42,
		"byteOffset":0,
		"min":[0],
		"max":[30]
	},
	{
		"bufferView":7,
		"type":"VEC3",
		"componentType":5126,
		"count":31,
		"byteOffset":0,
		"min":[-49.56861877441406,
		-63.96167755126953,
		-27.670391082763673],
		"max":[49.56861877441406,
		63.9635124206543,
		27.670391082763673]
	},
	{
		"bufferView":7,
		"type":"VEC3",
		"componentType":5126,
		"count":31,
		"byteOffset":12,
		"min":[-1.0,
		-1.0,
		-0.6803197264671326],
		"max":[0.9292584657669067,
		0.4946543276309967,
		0.6791813969612122]
	},
	{
		"bufferView":7,
		"type":"VEC2",
		"componentType":5126,
		"count":31,
		"byteOffset":24,
		"min":[0.0,
		0.0],
		"max":[1.0,
		1.0]
	},
	{
		"bufferView":8,
		"type":"SCALAR",
		"componentType":5123,
		"count":42,
		"byteOffset":0,
		"min":[0],
		"max":[30]
	},
	{
		"bufferView":9,
		"type":"VEC3",
		"componentType":5126,
		"count":31,
		"byteOffset":0,
		"min":[-69.5047378540039,
		-53.224952697753909,
		-38.92549133300781],
		"max":[69.5047378540039,
		53.22678756713867,
		38.92549133300781]
	},
	{
		"bufferView":9,
		"type":"VEC3",
		"componentType":5126,
		"count":31,
		"byteOffset":12,
		"min":[-1.0,
		-1.0,
		-0.6752520203590393],
		"max":[0.8338208198547363,
		0.6948112845420837,
		0.6743612289428711]
	},
	{
		"bufferView":9,
		"type":"VEC2",
		"componentType":5126,
		"count":31,
		"byteOffset":24,
		"min":[0.0,
		0.0],
		"max":[1.0,
		1.0]
	},
	{
		"bufferView":10,
		"type":"SCALAR",
		"componentType":5123,
		"count":42,
		"byteOffset":0,
		"min":[0],
		"max":[31]
	},
	{
		"bufferView":11,
		"type":"VEC3",
		"componentType":5126,
		"count":32,
		"byteOffset":0,
		"min":[-88.43314361572266,
		-41.01734924316406,
		-49.4904899597168],
		"max":[88.43314361572266,
		41.01918029785156,
		49.4904899597168]
	},
	{
		"bufferView":11,
		"type":"VEC3",
		"componentType":5126,
		"count":32,
		"byteOffset":12,
		"min":[-1.0,
		-1.0,
		-0.6735649704933167],
		"max":[0.7397905588150024,
		0.847771942615509,
		0.6728371977806091]
	},
	{
		"bufferView":11,
		"type":"VEC2",
		"componentType":5126,
		"count":32,
		"byteOffset":24,
		"min":[0.0,
		0.0],
		"max":[1.0,
		1.0]
	},
	{
		"bufferView":12,
		"type":"SCALAR",
		"componentType":5123,
		"count":42,
		"byteOffset":0,
		"min":[0],
		"max":[30]
	},
	{
		"bufferView":13,
		"type":"VEC3",
		"componentType":5126,
		"count":31,
		"byteOffset":0,
		"min":[-107.35881805419922,
		-29.158931732177736,
		-60.105674743652347],
		"max":[107.35881805419922,
		29.160764694213868,
		60.105674743652347]
	},
	{
		"bufferView":13,
		"type":"VEC3",
		"componentType":5126,
		"count":31,
		"byteOffset":12,
		"min":[-1.0,
		-1.0,
		-0.6721221208572388],
		"max":[0.7409757375717163,
		1.0,
		0.6715317964553833]
	},
	{
		"bufferView":13,
		"type":"VEC2",
		"componentType":5126,
		"count":31,
		"byteOffset":24,
		"min":[0.0,
		0.0],
		"max":[1.0,
		1.0]
	},
	{
		"bufferView":14,
		"type":"SCALAR",
		"componentType":5123,
		"count":42,
		"byteOffset":0,
		"min":[0],
		"max":[30]
	},
	{
		"bufferView":15,
		"type":"VEC3",
		"componentType":5126,
		"count":31,
		"byteOffset":0,
		"min":[-126.01348876953125,
		-16.4814453125,
		-70.45010375976563],
		"max":[126.01348876953125,
		16.483280181884767,
		70.45010375976563]
	},
	{
		"bufferView":15,
		"type":"VEC3",
		"componentType":5126,
		"count":31,
		"byteOffset":12,
		"min":[-1.0,
		-1.0,
		-0.6717559099197388],
		"max":[0.741280734539032,
		1.0,
		0.6711950302124023]
	},
	{
		"bufferView":15,
		"type":"VEC2",
		"componentType":5126,
		"count":31,
		"byteOffset":24,
		"min":[0.0,
		0.0],
		"max":[1.0,
		1.0]
	}],
	"bufferViews":[{
		"buffer":0,
		"byteOffset":0,
		"byteLength":1104,
		"target":34963
	},
	{
		"buffer":0,
		"byteOffset":1104,
		"byteLength":9600,
		"target":34962,
		"byteStride":32
	},
	{
		"buffer":1,
		"byteOffset":0,
		"byteLength":216,
		"target":34963
	},
	{
		"buffer":1,
		"byteOffset":216,
		"byteLength":2560,
		"target":34962,
		"byteStride":32
	},
	{
		"buffer":2,
		"byteOffset":0,
		"byteLength":84,
		"target":34963
	},
	{
		"buffer":2,
		"byteOffset":84,
		"byteLength":992,
		"target":34962,
		"byteStride":32
	},
	{
		"buffer":3,
		"byteOffset":0,
		"byteLength":84,
		"target":34963
	},
	{
		"buffer":3,
		"byteOffset":84,
		"byteLength":992,
		"target":34962,
		"byteStride":32
	},
	{
		"buffer":4,
		"byteOffset":0,
		"byteLength":84,
		"target":34963
	},
	{
		"buffer":4,
		"byteOffset":84,
		"byteLength":992,
		"target":34962,
		"byteStride":32
	},
	{
		"buffer":5,
		"byteOffset":0,
		"byteLength":84,
		"target":34963
	},
	{
		"buffer":5,
		"byteOffset":84,
		"byteLength":1024,
		"target":34962,
		"byteStride":32
	},
	{
		"buffer":6,
		"byteOffset":0,
		"byteLength":84,
		"target":34963
	},
	{
		"buffer":6,
		"byteOffset":84,
		"byteLength":992,
		"target":34962,
		"byteStride":32
	},
	{
		"buffer":7,
		"byteOffset":0,
		"byteLength":84,
		"target":34963
	},
	{
		"buffer":7,
		"byteOffset":84,
		"byteLength":992,
		"target":34962,
		"byteStride":32
	}],
	"materials":[{
		"pbrMetallicRoughness":{
			"baseColorFactor":[0.96,
			0.96,
			0.96,
			1.0],
			"metallicFactor":0.0,
			"roughnessFactor":0.5
		},
		"emissiveFactor":[0.0,
		0.0,
		0.0],
		"alphaMode":"OPAQUE",
		"doubleSided":false,
		"name":"Mat.2"
	}]
}